<?xml version="1.0" encoding="utf-8"?>
<!-- Generator: Adobe Illustrator 22.0.1, SVG Export Plug-In . SVG Version: 6.00 Build 0)  -->
<svg version="1.1" xmlns="http://www.w3.org/2000/svg" xmlns:xlink="http://www.w3.org/1999/xlink" x="0px" y="0px"
	 viewBox="0 0 1190.6 907.1" style="enable-background:new 0 0 1190.6 907.1;" xml:space="preserve">
<style type="text/css">
	.st0{fill:#883D50;}
	.st1{fill:#FFFFFF;}
	.st2{fill:#CABF84;}
	.st3{fill:none;stroke:#CABF84;stroke-width:3;stroke-miterlimit:10;}
	.st4{fill:none;stroke:#CABF84;stroke-miterlimit:10;}
	.st5{fill:none;stroke:#FFFFFF;stroke-width:2;stroke-miterlimit:10;}
	.st6{clip-path:url(#SVGID_2_);fill:#883D50;}
	.st7{clip-path:url(#SVGID_2_);fill:#CABF84;}
	.st8{clip-path:url(#SVGID_2_);}
	.st9{clip-path:url(#SVGID_2_);fill:#FFFFFF;}
	.st10{clip-path:url(#SVGID_2_);fill:none;stroke:#FFFFFF;stroke-miterlimit:10;}
	.st11{clip-path:url(#SVGID_2_);fill:#FFFFFF;stroke:#FFFFFF;stroke-miterlimit:10;}
	.st12{clip-path:url(#SVGID_2_);fill:none;stroke:#FFFFFF;stroke-width:3;stroke-miterlimit:10;}
</style>
<g id="Livello_97">
</g>
<g id="Livello_95">
	<rect class="st0" width="1190.6" height="907.1"/>
</g>
<g id="lui_1_">
</g>
<g id="Livello_11_copia_7">
</g>
<g id="Livello_62">
</g>
<g id="Livello_9">
</g>
<g id="Livello_10_copia_2">
</g>
<g id="Livello_12_copia_26">
	<g>
		<path class="st1" d="M1022.1,616.4"/>
	</g>
	<g>
		<g>
			<path class="st2" d="M774.3,795.3c-3,0.2-19.9,3-15.5,9c2.1,2.9,7.5,1.3,10.3,3.3c1.8,1.4,0,0.9-1.8,1.4
				c-1.2,0.3-2.4,0.7-3.6,0.9c-3.3,0.7-6.7,1.1-10.1,1.3c-1.9,0.1-1.9,3.1,0,3c3.3-0.2,21.9-1.1,19.5-7.1c-1.1-2.8-6.7-3.7-9.1-4.1
				c-3.2-0.5-1.9-1.4,0.3-2.4c3.1-1.5,6.5-2.2,10-2.4C776.2,798.2,776.2,795.2,774.3,795.3L774.3,795.3z"/>
		</g>
	</g>
	<g>
		<g>
			<path class="st2" d="M427.8,813.3c-3-2.5-6.2-4.9-9.4-7.3c-1.4-1-7.7-4.4-8-6c-0.3,0.6-0.7,1.2-1,1.8c1.6-0.7,4.1,0.1,5.9-0.5
				c1.6-0.5,3.3-1.5,4.1-3c1.6-3.4-1.9-6.2-4.6-7.4c-0.6-0.2-1.4-0.3-1.8,0.2c-6.2,7.5-12.3,15-18.5,22.5c-1.2,1.5,0.9,3.6,2.1,2.1
				c6.2-7.5,12.3-15,18.5-22.5c-0.6,0.1-1.2,0.2-1.8,0.2c4.1,1.8,3.4,5-1.6,5.3c-1,0.1-2-0.3-3,0.1c-0.8,0.3-1.2,1-1,1.8
				c0.3,1.9,4.1,3.9,5.4,4.9c4.3,3.2,8.6,6.2,12.7,9.7C427.1,816.6,429.2,814.5,427.8,813.3L427.8,813.3z"/>
		</g>
	</g>
	<g>
		<g>
			<path class="st2" d="M649.9,813.9c3.7-3.9,7.1-8,10.1-12.5c-0.9-0.3-1.9-0.5-2.8-0.8c-0.3,4.9,0.8,10.5,6.7,10.8
				c6.4,0.4,12.6-5.8,16.5-10.2c-0.8-0.1-1.6-0.2-2.4-0.3c4.5,7.1,11.4,11.7,19.6,13.5c1.9,0.4,2.7-2.5,0.8-2.9
				c-7.4-1.7-13.7-5.7-17.8-12.1c-0.5-0.8-1.7-1-2.4-0.3c-2.5,2.8-5.3,5.5-8.5,7.4c-2.9,1.7-5.7,2.9-8.1,0.1
				c-1.8-2.1-1.7-3.5-1.5-6.1c0.1-1.6-2-1.9-2.8-0.8c-2.9,4.3-6.1,8.2-9.6,11.9C646.4,813.2,648.6,815.3,649.9,813.9L649.9,813.9z"
				/>
		</g>
	</g>
	
		<ellipse transform="matrix(0.7295 -0.684 0.684 0.7295 -417.9367 556.2338)" class="st3" cx="494.3" cy="806.5" rx="8.1" ry="6.4"/>
	<ellipse transform="matrix(0.7295 -0.684 0.684 0.7295 -394.7611 614.838)" class="st3" cx="580" cy="806.5" rx="8.1" ry="6.4"/>
	<path class="st4" d="M421.1,809.5"/>
</g>
<g id="Livello_72">
</g>
<g id="Livello_82">
	<g>
		<g>
			<path class="st1" d="M748.7,711.4c-0.8,0.9-1.7,1.6-2.7,2.1c-0.6,0.3-0.2,1.7-0.1,2c0.3,1.1,1.1,2.2,1.8,3.1
				c0.8,0.9,1.7,1.8,2.7,2.3c0.7,0.3,1.3,0.6,2,0.2c1-0.5,1.9-1.2,2.7-2.1c0.5-0.6,0.3-1.4,0.1-2c-0.3-1.1-1.1-2.2-1.8-3.1
				c-0.8-0.9-1.7-1.8-2.7-2.3C750.2,711.3,749.2,710.8,748.7,711.4L748.7,711.4z"/>
		</g>
	</g>
	<g>
		<g>
			<path class="st1" d="M633.4,653.7c0.1-0.1,0.1-0.2,0.2-0.3c0.4-0.7-0.2-1.4-0.7-1.7c-0.8-0.5-2.1-0.7-3.1-0.7
				c-1.3,0-2.6,0.1-3.8,0.7c-0.8,0.4-1.7,0.8-2.1,1.6c-0.1,0.1-0.1,0.2-0.2,0.3c-0.4,0.7,0.2,1.4,0.7,1.7c0.8,0.5,2.1,0.7,3.1,0.7
				c1.3,0,2.6-0.1,3.8-0.7C632.1,655,633,654.6,633.4,653.7L633.4,653.7z"/>
		</g>
	</g>
</g>
<g id="Livello_98">
	<g>
		<g>
			<path class="st0" d="M742.9,738.2c0.5-1.7,1-3.3,1.4-5c-1-0.1-2-0.3-2.9-0.4c-0.2,1.6-0.9,3-0.8,4.6c0.1,0.9,0.9,1.8,1.9,1.4
				c0.2-0.1,0.3-0.1,0.5-0.2c1.8-0.7,1-3.6-0.8-2.9c-0.2,0.1-0.3,0.1-0.5,0.2c0.6,0.5,1.3,1,1.9,1.4c-0.1-1.6,0.7-3.1,0.8-4.6
				c0.2-1.7-2.5-2-2.9-0.4c-0.4,1.7-0.9,3.3-1.4,5C739.4,739.2,742.3,740,742.9,738.2L742.9,738.2z"/>
		</g>
	</g>
	<g>
		<g>
			<path class="st0" d="M745.4,736.8c1.3-2.6,2.4-5.2,3.5-7.8c0.6-1.5-1.5-2.4-2.5-1.5c-2.7,2.7-5.5,5.4-8.2,8.1
				c-1.4,1.4,0.7,3.5,2.1,2.1c2.7-2.7,5.5-5.4,8.2-8.1c-0.8-0.5-1.7-1-2.5-1.5c-1,2.4-2,4.8-3.2,7.1
				C741.9,737,744.5,738.5,745.4,736.8L745.4,736.8z"/>
		</g>
	</g>
	<g>
		<g>
			<path class="st1" d="M741.9,741.7c2.1-0.5,4.1-1.8,5.8-3.1c1.9-1.5,3-3.2,3.8-5.5c0.5-1.5-0.6-3.3-2.1-3.7
				c-1.7-0.5-3.1,0.6-3.7,2.1c-0.8,2.2-3.1,3.9-5.4,4.4C736.5,736.8,738.1,742.5,741.9,741.7L741.9,741.7z"/>
		</g>
	</g>
	<g>
		<g>
			<path class="st1" d="M744.9,738c2.4-3.3,3.4-7.6,4.1-11.6c0.4-2.5,0.2-4.8,1.3-7.2c0.9-1.8,1.7-3.5,2.2-5.5
				c0.5-2-1.5-4.6-3.7-3.7c-3.4,1.4-5.6,5.4-7.3,8.5c-2.3,4.1-3.7,8.3-4.3,13c-0.5,3.8,5.5,3.8,6,0c0.4-3.3,1.6-6.4,3.1-9.3
				c0.8-1.4,3-6,4.1-6.4c-1.2-1.2-2.5-2.5-3.7-3.7c-1,3.8-3.6,6.5-3.7,10.5c0,4-0.9,9-3.3,12.3C737.4,738.1,742.6,741.1,744.9,738
				L744.9,738z"/>
		</g>
	</g>
	<g>
		<g>
			<path class="st1" d="M755.7,718c0.4-1.7,0.8-3.4,1.1-5.1c0.5-2-0.9-3.6-2.9-3.8c-0.5,0-0.9,0.1-1.4,0.1c-1.6,0.2-2.5,2.3-2.1,3.7
				c0.5,1.7,2.1,2.3,3.7,2.1c-0.1,0-0.1,0.1-0.2,0.1c-1-1.3-1.9-2.5-2.9-3.8c-0.4,1.7-0.8,3.4-1.1,5.1c-0.4,1.6,0.5,3.2,2.1,3.7
				C753.5,720.5,755.4,719.6,755.7,718L755.7,718z"/>
		</g>
	</g>
</g>
<g id="Livello_99">
</g>
<g id="lui_3_">
	<g>
		<g>
			<path class="st1" d="M294.2,787.3c26.7-16.5,49-38.9,68.6-63.2c10.1-12.6,19.6-25.7,28.7-39.1c8.7-12.7,18.2-25.4,25.4-39
				c8.6-16.2,11.2-34.3,9.3-52.3c-0.1-1.3-4.6-9-5.2-7.5c-17.6,39.3-20.3,82.9-18.7,125.4c0.3,8.9-0.4,18.5,4.4,26.3
				c4.3,6.9,10.1,7.4,16.2,2c3.4-3,5.8-7,8.3-10.8c3.2-4.7,6.3-9.5,9.3-14.3c5.5-8.7,10.7-17.6,15.7-26.6
				c11.8-21.4,22.1-43.5,31-66.2c0.8-2-4.9-8.7-5.1-8.4c-17.8,28.9-28.1,62-29.8,95.9c-0.6,11.8,0.4,26.5,10.8,34.3
				c13.5,10.2,27.5-8.8,39-13.3c-1.5-2-3-4-4.5-6.1c2.8,6.6,7.2,18,15.4,19.3c4.9,0.8,15.6-1.4,16.2-7.6c0.2-1.9-1.3-4.2-2.3-5.7
				c-0.2-0.3-2.8-3.6-2.9-2.4c-0.3,4-5.9,5.8-9.2,6.6c-6.6,1.5-10.2-0.3-12.9-6.7c-0.4-1-2.9-6.7-4.5-6.1c-10.8,4.2-21,19.3-34,15.6
				c-6.7-1.9-6-9.6-5.9-15.3c0.1-7.1,0.8-14.2,1.7-21.2c3.7-27.8,13.2-54.7,27.9-78.5c-1.7-2.8-3.4-5.6-5.1-8.4
				c-14.1,36-31.8,70.5-53.1,102.8c-4.1,6.2-8.8,15.9-16.6,18.1c-0.5,0.2-4.6,0.2-3.7,1.1c-0.9-1-0.4-5.2-0.5-6.4
				c-0.3-4.8-0.5-9.7-0.6-14.5c-0.6-19.7-0.3-39.4,2.2-58.9c2.6-21.3,7.9-42.1,16.7-61.7c-1.7-2.5-3.5-5-5.2-7.5
				c1.6,16-0.5,32-7.2,46.7c-6.6,14.4-16.9,27.7-25.8,40.8c-17.4,25.6-36,50.6-58.2,72.3c-12.4,12.1-25.8,23-40.6,32.1
				C287.8,779.5,292.9,788.1,294.2,787.3L294.2,787.3z"/>
		</g>
	</g>
	<g>
		<g>
			<path class="st1" d="M566.8,640.9c-21.5,17.9-36.4,42.9-41.9,70.4c-1.3,6.7-2.9,14.1-1.3,20.9c1.5,6.3,6.6,10.5,12.5,12.8
				c9,3.5,19.7,1.6,28.7-1c19.6-5.9,37.5-18,50.5-33.8c7.6-9.3,14.1-19.5,18.7-30.6c2.3-5.4,4-11.1,5.3-16.9c1-4.2,2.5-10,0.8-14.2
				c-2-5-9.1-3.8-12.5-1c-3.4,2.8-6.2,7.4-8.7,11c-7.5,10.9-13.2,23.2-16.3,36.1c-3,12.1-4.9,25.9-2.8,38.4c0.6,3.5,1.5,7.8,4.6,10
				c3.2,2.2,7.4,1.2,10.4-0.8c6.8-4.5,10.4-15.5,19.3-16.4c8.7-0.8,15.7,9.7,22.1,14.2c10.8,7.6,23.9,8.6,36.4,5
				c11.7-3.4,23.8-8.7,34.2-15.1c3.3-2.1,25.3-20.5,26.9-17.4c0.8,1.5-0.6,5.1-1,6.5c-0.9,2.9-2,5.7-3.3,8.5
				c-1.2,2.7-2.6,5.3-4.1,7.9c-0.7,1.2-1.5,2.4-2.4,3.4c-0.2,0.2-0.9,0.8-1,1.1c-0.3,1,1.7,0.1,1.8-0.1c0,0.1-2.7-5.4-2.8-5.9
				c-0.5-2.3-0.9-5.4-0.2-7.7c0.3-1,0.3-1.2,0.9-1.5c0.8-0.4,3.1,0.7,3.9,0.9c2.9,1,5.4,2.6,7.6,4.8c3.6,3.6,6.1,8.1,10.5,10.9
				c3.6,2.4,7.8,3.7,12.1,4.2c6.7,0.9,13.4-0.1,19.9-1.4c5.2-1,6.3-7.8-0.2-6.6c-7.4,1.5-16,2.3-22.9-1.3
				c-5.9-3.1-8.6-9.6-13.8-13.6c-5-3.8-12.5-6.4-18.7-4.5c-6.6,2-9.2,8-9,14.4c0.2,4.6,1.5,12.1,6.5,13.8c5.6,2,11-3.1,14-7.2
				c4.1-5.5,7.1-12.2,9.5-18.6c1.3-3.5,4.2-10.6,0.7-13.9c-5.2-5.1-15.9,1.7-20.5,4.4c-6.6,3.9-11.8,9.5-18.2,13.6
				c-6.1,3.9-12.9,6.9-19.6,9.6c-9.7,4-19.9,7.5-30.3,4.4c-11.9-3.6-18.2-16.4-30-19.4c-13.5-3.4-22.8,7.1-30.7,16.1
				c-0.2,0.2-2.3,2.4-2.3,2.3c-0.1-0.1,2.1-0.6,2.1-0.5c0,0-1-0.9-1-1.1c-1.4-3-2.1-5.9-2.4-9.3c-0.9-9.3,0.1-19,1.9-28.2
				c3.5-17.8,11.6-34.3,23.4-48c-1.1,0.6-2.2,1.3-3.3,1.9c1.2-0.4,0.4,6.7,0.1,8c-0.5,3.1-1.4,6.1-2.2,9.1
				c-2.6,9.1-6.5,17.6-11.5,25.6c-5.1,8.1-11.1,15.9-18.1,22.4c-12.5,11.4-30.6,21.8-48,22.1c-7.7,0.1-16.6-3.5-18.2-11.8
				c-1.8-9.1,1.6-20.3,4.2-29c6.3-20.7,18.2-39.8,34.9-53.7C576.8,641,570.9,637.5,566.8,640.9L566.8,640.9z"/>
		</g>
	</g>
	<path class="st0" d="M742.6,722.6c-3.1,4.9-4,10.1-2,11.5s6.2-1.3,9.3-6.2c3.1-4.9,4-10.1,2-11.5S745.7,717.7,742.6,722.6z"/>
	
		<ellipse transform="matrix(0.4144 -0.9101 0.9101 0.4144 -256.6595 963.6592)" class="st5" cx="620.5" cy="681.3" rx="27.4" ry="3.9"/>
	<path class="st5" d="M779.7,728"/>
	<g>
		<g>
			<path class="st1" d="M822.3,744.1c15.7-2.1,28.8-12.3,34.9-26.9c-1.2,0.1-2.3,0.1-3.5,0.2c4.5,2.8,6.9,7.2,8.5,12.1
				c1.5,4.6-0.7,7.3-5.2,8.3c-3.1,0.7,2.7,8.4,5.9,7.7c8.2-1.8,8.6-8.1,6-14.9c-3.1-8.3-8.4-14.9-15.9-19.6c-1-0.6-2.9-1.3-3.5,0.2
				c-5.7,13.9-18.3,23.2-33.1,25.1C813.4,736.8,819,744.5,822.3,744.1L822.3,744.1z"/>
		</g>
	</g>
	<g>
		<g>
			<path class="st1" d="M410.2,740.4c3.9,0,3.9-6,0-6C406.4,734.4,406.3,740.4,410.2,740.4L410.2,740.4z"/>
		</g>
	</g>
</g>
<g id="Livello_100">
	<g>
		<g>
			<path class="st1" d="M409.9,734.5c-0.3-0.5-0.6-1-1-1.5c-0.4-0.5-1.3-0.1-1.3,0.5c0,1.1,0.2,2.5,1.4,3c0.8,0.4,2.2,0.4,2.7-0.5
				c0.1-0.2,0.2-0.5,0-0.8c-0.8-1.1-2.2-1.4-2.8-2.7c-0.6-1.3-1.4-2.8-1.3-4.2c0-1-1.5-1-1.5,0c0,1.7,0.8,3.1,1.4,4.6
				c0.2,0.5,0.3,1.1,0.8,1.5c0.6,0.6,1.7,0.9,2.2,1.6c0-0.3,0-0.5,0-0.8c0,0.1-0.7-0.3-0.8-0.4c-0.5-0.4-0.5-0.7-0.5-1.4
				c-0.4,0.2-0.9,0.4-1.3,0.5c0.3,0.4,0.6,0.8,0.8,1.2C409.1,736.1,410.4,735.4,409.9,734.5L409.9,734.5z"/>
		</g>
	</g>
	<g>
		<g>
			<path class="st1" d="M406.3,727.4c0.4,3.8,2.4,7.9,6.1,9.4c0.9,0.4,1.3-1.1,0.4-1.4c-3-1.2-4.7-5-5-8
				C407.7,726.4,406.2,726.4,406.3,727.4L406.3,727.4z"/>
		</g>
	</g>
</g>
<g id="Livello_12_copia_28">
	<g>
		<g>
			<path class="st1" d="M515.9,659.5c21.4,14.8,47.8,20.3,73.2,14c3.3-0.8-3.2-8-6.6-7.2c-22.7,5.7-46.3,1-65.5-12.3
				c-1.4-0.9-3.9-1.7-4.7,0.2C511.5,656.2,514.7,658.7,515.9,659.5L515.9,659.5z"/>
		</g>
	</g>
	<ellipse transform="matrix(0.899 -0.438 0.438 0.899 -224.0831 410.243)" class="st1" cx="777.4" cy="690.9" rx="3.4" ry="9.7"/>
</g>
<g id="Livello_12_copia_30">
	<g>
		<g>
			<path class="st1" d="M515.9,659.5c21.4,14.8,47.8,20.3,73.2,14c3.3-0.8-3.2-8-6.6-7.2c-22.7,5.7-46.3,1-65.5-12.3
				c-1.4-0.9-3.9-1.7-4.7,0.2C511.5,656.2,514.7,658.7,515.9,659.5L515.9,659.5z"/>
		</g>
	</g>
	<ellipse transform="matrix(0.899 -0.438 0.438 0.899 -253.4178 287.74)" class="st1" cx="497.1" cy="693.3" rx="3.4" ry="9.7"/>
</g>
<g id="Livello_49">
</g>
<g id="Livello_14">
</g>
<g id="lui_2_">
	<g>
		<defs>
			<rect id="SVGID_1_" x="263.8" y="95.2" width="660" height="460"/>
		</defs>
		<clipPath id="SVGID_2_">
			<use xlink:href="#SVGID_1_"  style="overflow:visible;"/>
		</clipPath>
		<rect x="263.8" y="95.2" class="st6" width="660" height="460"/>
		<path class="st7" d="M685,74.2"/>
		<path class="st7" d="M855.6,111.5"/>
		<g class="st8">
			<path class="st2" d="M846.9,85.8c0,52.3-42.4,94.8-94.8,94.8c-52.3,0-94.8-42.4-94.8-94.8S693.9-9,746.2-9
				C798.5-9,846.9,33.4,846.9,85.8z"/>
			<g>
				<path class="st2" d="M844.4,85.8c-0.3,38.5-24.6,73.8-61,86.8c-36.5,13.1-78,1.5-102.7-28.3c-24.3-29.4-27.3-72.4-9.5-105.8
					c18.2-34,56-50.6,93.6-43.1C807.8,3.9,844.1,40.9,844.4,85.8c0,3.2,5,3.2,5,0C849.1,44,819.3,8.4,780.8-5.4
					C743.1-18.9,700-9.1,675.2,23.2c-24.3,31.7-27.1,78.1-6.6,112.4c20.8,34.9,62.1,53.2,102,45.7c45.5-8.6,78.5-49.6,78.8-95.5
					C849.5,82.6,844.5,82.6,844.4,85.8z"/>
			</g>
		</g>
		<polygon class="st9" points="950.3,95.1 321.7,95.1 315.8,0 944.3,0 		"/>
		<g class="st8">
			<g>
				<path class="st1" d="M765.3,277c2.5-0.4,5-0.8,7.5-1.1c1.2-0.2,1.9-1.7,1.6-2.8c-0.4-1.3-1.6-1.8-2.8-1.6
					c-2.5,0.4-5,0.8-7.5,1.1c-1.2,0.2-1.9,1.7-1.6,2.8C762.9,276.7,764.1,277.2,765.3,277L765.3,277z"/>
			</g>
		</g>
		<g class="st8">
			<g>
				<path class="st1" d="M450.3,123.4c-16.1-0.5-32.2,0.7-48,3.5c-13.4,2.4-27.1,5.6-39.2,12.1c-10.6,5.7-19.3,14.2-23.4,25.7
					c-5,14.1-3.1,29.9-2.5,44.5c0.8,19.5,1.7,39.1,2.5,58.6c0.2,3.8,6.2,3.9,6,0c-0.8-19.9-1.7-39.7-2.5-59.6
					c-0.7-17.3-3.6-38,8.3-52.5c9.9-12,25.7-17.1,40.3-20.5c19.2-4.5,38.8-6.4,58.5-5.8C454.2,129.5,454.2,123.5,450.3,123.4
					L450.3,123.4z"/>
			</g>
		</g>
		<g class="st8">
			<g>
				<path class="st1" d="M344.6,270.8c5.9,0,11.9,0,17.8,0c3.9,0,3.9-6,0-6c-5.9,0-11.9,0-17.8,0
					C340.7,264.8,340.7,270.8,344.6,270.8L344.6,270.8z"/>
			</g>
		</g>
		<g class="st8">
			<g>
				<path class="st1" d="M359.4,267.8c0.9,12.2,2,24.4,3.4,36.6c1.4,11.7,2.4,23.9,5.3,35.3c2.6,10.4,10.6,13,20.2,14.7
					c11.8,2.1,23.7,2.8,35.6,2.2c-1-1-2-2-3-3c1.1,67.3,2.2,134.7,3.3,202c0.1,3.9,6.1,3.9,6,0c-1.1-67.3-2.2-134.7-3.3-202
					c0-1.6-1.4-3.1-3-3c-10.4,0.5-20.9,0.1-31.3-1.5c-4.5-0.7-10-1.2-14-3.5c-4.8-2.8-5.2-9.3-6-14.2c-3.5-21-5.6-42.3-7.2-63.5
					C365.1,264,359.1,264,359.4,267.8L359.4,267.8z"/>
			</g>
		</g>
		<g class="st8">
			<g>
				<path class="st1" d="M429.4,129.6c18.8,5.9,34.6,19.7,42.8,37.7c10,22,7.8,48.2,8.6,71.7c1.6,50,4.9,99.9,9.6,149.7
					c1.8,19.1,3.9,37,10.9,55.1c6.4,16.8,14.8,33,27.2,46.2c14.2,15.1,32.6,24.1,51.5,31.6c15.9,6.4,32.7,10.9,49.7,13.4
					c44.3,6.5,92.2,5.4,135.2-7.5c31.6-9.5,58.9-26.7,77.9-54.1c16.6-23.9,25.8-51.5,25-80.9c-1-35.1-13.5-71-37.7-96.9
					c-12-12.8-28.8-25.7-46.6-28.7c-18.7-3.1-34,11-46.8,22.8c-7.7,7.1-14.6,14.9-20.9,23.2c-1.7,2.3,2.2,4.6,3.9,2.3
					c6.4-8.4,13.4-16.2,21.2-23.3c7.2-6.5,15-13.4,23.6-17.9c18.7-9.6,40.8,5,54.7,17.3c26.6,23.5,41,58.9,43.6,93.9
					c2.2,29-5.1,56.6-20.7,80.9c-9.5,14.8-21.3,27.7-35.9,37.5c-12.4,8.2-26,14.3-40.2,18.7c-42.5,13.3-90.1,14.5-134.1,8.4
					c-13.8-1.9-27.3-5.2-40.5-9.7c-19.9-6.8-40.6-15.7-55.9-30.4c-13.4-12.9-22.3-29.2-29.1-46.3c-7-17.6-9.4-34.9-11.2-53.6
					c-4.6-47.5-7.8-95.1-9.5-142.8c-0.8-22.3,0.6-45.8-4.4-67.7c-4-17.3-13.7-32.6-27.9-43.2c-6.9-5.2-14.5-9-22.7-11.6
					C427.8,124.4,426.7,128.8,429.4,129.6L429.4,129.6z"/>
			</g>
		</g>
		<g class="st8">
			<g>
				<path class="st1" d="M450.3,129.4c17.3,1.4,33.7,8.9,46.2,20.8c13.7,13,20.6,30.2,24.1,48.4c3.9,20.3,5.2,41.2,7.5,61.7
					c2.3,21.5,4.7,43,7,64.5c3.1,28,6.2,56.4,13.1,83.8c2.6,10.4,6.2,20.2,11.5,29.5c15.6,27.3,38.9,49.1,68.8,59.8
					c27.2,9.7,56.1,8.8,84.1,4.2c29.5-4.9,60.3-17,83.3-36.6c24.3-20.6,39.3-49.1,41.1-81.1c1.7-29.7-6.6-58.1-26.4-80.7
					c-9.7-11.1-21.5-23-37-24.4c-14.7-1.3-29.5,5.6-40,15.5c-5.8,5.5-10.4,12-14,19.1c-1.8,3.4,3.4,6.5,5.2,3
					c7.2-14,18.9-25.9,34.4-30.2c7.8-2.2,16.1-2.4,23.6,1c7.1,3.2,12.8,8.8,18.1,14.2c11.3,11.6,20.6,25,25.4,40.5
					c3.8,12.3,5.1,25.5,4.8,38.3c-0.9,32.1-15.8,60.5-40.2,80.9c-22.6,18.9-52.8,30.1-81.6,34.7c-27.9,4.5-56.6,4.7-83.3-6
					c-28-11.2-48.7-32.8-63-58.8c-4.8-8.7-7.6-18.3-9.9-27.9c-6.6-27.9-9.7-56.6-12.8-85c-2.2-20.2-4.4-40.4-6.6-60.6
					c-2.1-19.3-3.5-38.7-6.8-57.9c-2.9-16.6-8.1-32.9-18.7-46.3c-9.3-11.8-22-20.8-36.1-26.1c-7.1-2.7-14.5-4.2-22-4.8
					C446.5,123.1,446.5,129.1,450.3,129.4L450.3,129.4z"/>
			</g>
		</g>
		<g class="st8">
			<g>
				<path class="st1" d="M445.8,130.7c17.1,2.2,30.6,14.8,38.5,29.5c9.3,17.5,10.8,38,11.7,57.5c2,42,4.6,84,8.5,125.9
					c1.6,16.9,2.5,34,4.4,50.9c2,18.2,7.1,35.7,14.3,52.5c6.7,15.7,16.3,30,29,41.6c10,9.1,21.6,15.4,34,20.6
					c15.1,6.4,30.1,12,46.3,15.2c16.5,3.2,33.3,4.4,50.1,4.2c23.7-0.4,47.5-3.5,70.4-9.4c32.1-8.3,62.6-26,82.1-53.2
					c12.6-17.6,20.5-38.7,23.7-59.9c4.1-27.8,1.2-57.2-11.8-82.3c-10.8-20.8-28.1-38.9-49.9-48c-7.4-3.1-15-5-22.9-6
					c-2.9-0.4-2.8,4.1,0,4.5c28.1,3.6,51.1,21.6,65.5,45.5c13.2,22,17.5,47.7,16,73.1c-1.4,22.6-8.1,44.6-19.8,63.9
					c-17.5,28.8-48.1,48.2-80.1,57.1c-22,6.1-45.1,9.4-67.9,10.2c-16.4,0.6-32.9-0.2-49.1-3c-16.6-2.8-32.1-8-47.5-14.5
					c-12.4-5.2-24.4-11.1-34.6-20c-13.3-11.7-23-26.4-29.8-42.6c-7.1-17.1-12-34.8-13.7-53.3c-1.5-16.6-2.7-33.1-4.2-49.7
					c-3.7-40.3-6.3-80.7-8.1-121.1c-1.5-31.7-5.7-69.2-36-87c-5.8-3.4-12.1-5.5-18.8-6.3C442.9,125.9,442.9,130.4,445.8,130.7
					L445.8,130.7z"/>
			</g>
		</g>
		<g class="st8">
			<g>
				<path class="st1" d="M477.3,137.7c2.9,2,5.8,3.8,8.4,6.2c4.2,3.8,6.9,8.5,9.5,13.5c4.8,8.9,8.6,18.2,11.5,27.9
					c4.2,14.4,5.8,29.2,7.1,44c2.6,29,5.7,58.1,7.5,87.2c3.6,57,5.8,124.8,51.4,166.1c14,12.7,30.7,19.8,48.5,25.4
					c11.1,3.5,22,6.1,33.6,7.4c38.5,4.4,77.4-1.4,113-16.5c12.3-5.2,24.5-11.4,35.1-19.7c8.3-6.5,15.6-14.7,21.9-23.1
					c19.8-26.4,28.3-60.7,23.7-93.3c-4.4-31.3-20.2-63.9-47.3-81.5c-13-8.5-28-12.2-42.3-4.9c-5.7,2.9-11.4,5.3-16.6,9.3
					c-5.5,4.2-10.2,9.4-14,15.1c-2.1,3.2-3.9,6.6-5.4,10.1c-1.1,2.6,2.8,4.9,3.9,2.3c4.2-9.9,11.1-18.9,19.9-25.2
					c11.4-8.1,25.4-13.9,39.2-9.3c31,10.4,50,45.6,56.4,75.5c7.1,32.7,0.5,67.9-18.5,95.6c-13.8,20-31.6,33.4-53.6,43.2
					c-35.2,15.8-74,22-112.5,18.2c-10.9-1.1-21.4-3.2-31.8-6.4c-18.3-5.6-35.7-12.3-50.1-25.3c-44-39.9-46.6-105.6-50-160.7
					c-1.7-27.8-4.8-55.6-7.1-83.4c-2.6-30.5-6.4-62.8-24.6-88.6c-3.9-5.5-9.2-9.1-14.6-12.9C477.2,132.2,474.9,136.1,477.3,137.7
					L477.3,137.7z"/>
			</g>
		</g>
		<path class="st10" d="M656.5,531"/>
		<g class="st8">
			<g>
				<path class="st1" d="M375.9,210.1c16.5-13,39.7-14.6,57.9-4.2c1.7,1,3.2-1.6,1.5-2.6c-19.5-11.1-43.9-9.1-61.6,4.7
					C372.3,209.1,374.4,211.3,375.9,210.1L375.9,210.1z"/>
			</g>
		</g>
		<g class="st8">
			<g>
				<path class="st1" d="M373.8,210.1c8.8,10.8,20,22.2,35.3,19.4c13.1-2.4,19.6-14.3,26.9-24.2c1.1-1.6-1.5-3.1-2.6-1.5
					c-6.3,8.7-12.3,19.7-23.5,22.5c-14.7,3.6-25.6-8.1-33.9-18.3C374.7,206.5,372.6,208.6,373.8,210.1L373.8,210.1z"/>
			</g>
		</g>
		<g class="st8">
			<g>
				<path class="st1" d="M401.3,167.6c0.1,4.2,0.2,8.5,0.3,12.7c0,1.9,3.1,1.9,3,0c-0.1-4.2-0.2-8.5-0.3-12.7
					C404.2,165.7,401.2,165.7,401.3,167.6L401.3,167.6z"/>
			</g>
		</g>
		<g class="st8">
			<g>
				<path class="st1" d="M424.2,186.6c2.7-4.5,5.3-8.9,8-13.4c1-1.7-1.6-3.2-2.6-1.5c-2.7,4.5-5.3,8.9-8,13.4
					C420.6,186.7,423.2,188.2,424.2,186.6L424.2,186.6z"/>
			</g>
		</g>
		<g class="st8">
			<g>
				<path class="st1" d="M377.6,177.4c2.8,3.5,5.6,7,8.5,10.5c1.2,1.5,3.3-0.6,2.1-2.1c-2.8-3.5-5.6-7-8.5-10.5
					C378.5,173.8,376.4,175.9,377.6,177.4L377.6,177.4z"/>
			</g>
		</g>
		<g class="st8">
			<g>
				<path class="st1" d="M710.3,314.9c-4.4-14.9-7.6-30-7.3-45.6c0.2-7.8,1.1-15.6,2.9-23.2c1.4-6.1,2.7-11.4,6.9-16.1
					c1.9-2.2,3.6-4.7,5.5-1.1c1.4,2.7,1.7,6.6,1.9,9.5c0.4,7.7-1.2,15.4-2.1,23c-1.9,15.9-2.4,31.9-1.7,47.9c0.1,2.9,4.6,2.9,4.5,0
					c-0.9-20.4,1-40.2,3.3-60.4c0.5-4.4,1-34-11-25.5c-11.1,7.9-12.9,24.3-14.1,36.7c-1.9,19.1,1.5,37.7,6.9,56
					C706.8,318.9,711.1,317.7,710.3,314.9L710.3,314.9z"/>
			</g>
		</g>
		<g class="st8">
			<g>
				<path class="st1" d="M708.9,312c-12.8-11.7-25.3-23.6-37.8-35.7c-9-8.7-19.8-16-31.6-20.5c-5.3-2-14.7-5.2-17.8,1.8
					c-2,4.5-0.1,10.4,1.6,14.7c4.9,12.2,15.6,21.3,26.1,28.7c16.4,11.5,34.7,20,53.7,26c2.8,0.9,4-3.5,1.2-4.3
					c-14.7-4.6-28.9-10.8-42.1-18.7c-11.7-7-24-15.3-31.5-26.9c-2.2-3.4-3.8-7-4.7-10.9c-0.3-1.4-0.8-3-0.6-4.5
					c0.7-4,3.2-4.1,6.3-3.5c4.2,0.8,8.3,2.6,12.1,4.5c9.5,4.6,18,11,25.6,18.4c11.9,11.6,24,23,36.3,34.2
					C707.9,317.1,711.1,313.9,708.9,312L708.9,312z"/>
			</g>
		</g>
		<g class="st8">
			<g>
				<path class="st1" d="M703.7,322.4c-15.7,0.2-32.9,1.1-47.3,7.9c-12.8,6-25.7,15.3-34.3,26.5c-3.5,4.5-9.7,11.7-8.4,18
					c1,5.2,7.2,5.7,11.5,5.3c14.2-1.2,28.5-7.1,40.5-14.8c16.3-10.4,31.7-22.6,46.7-34.8c2.2-1.8-1-5-3.2-3.2
					c-13.3,10.8-26.9,21.1-41,30.8c-8.1,5.6-16.8,10.3-26.1,13.5c-3.6,1.2-7.2,2.3-10.9,3c-2.7,0.5-9.7,2.4-12.2,0.3
					c-3.9-3.4,5.4-13.9,7.6-16.7c7.8-9.8,18.9-16.9,29.8-22.9c13.9-7.7,31.8-8.3,47.4-8.5C706.6,326.9,706.6,322.4,703.7,322.4
					L703.7,322.4z"/>
			</g>
		</g>
		<g class="st8">
			<g>
				<path class="st1" d="M705.9,331.9c-4.7,26.7-6.3,58.3,8.1,82.5c3.2,5.4,7.6,11.7,13.2,14.8c5.7,3.2,10.2-0.6,12.4-5.9
					c4.7-11,1.5-23.3-1.2-34.3c-4.7-19.6-10.1-39.1-14.6-58.8c-0.7-2.8-5-1.6-4.3,1.2c3.2,13.8,7.2,27.4,10.6,41.1
					c2,8.1,3.7,16.2,5.7,24.2c1.2,5,1.9,10.2,1.7,15.4c-0.2,4.6-1.4,14.7-8,13.2c-2.3-0.5-5.3-4.6-6.8-6.4c-2.2-2.6-4.1-5.5-5.7-8.5
					c-4.8-8.7-7.2-17.9-8.4-27.7c-2.1-16.5-1.1-33.3,1.7-49.7C710.8,330.3,706.4,329.1,705.9,331.9L705.9,331.9z"/>
			</g>
		</g>
		<g class="st8">
			<g>
				<path class="st1" d="M728,319.9c16.2,0.5,32.7,1.6,48.6,4.8c6.4,1.3,13.5,4,17.2,9.8c4.3,6.7-5.3,12.1-10.9,12.9
					c-11.2,1.6-23.5-3.4-33.6-7.5c-8.4-3.4-16.6-7.4-24.6-11.8c-2.5-1.4-4.8,2.5-2.3,3.9c16.3,9,34.9,18.4,53.7,20
					c8.3,0.7,19.9-2,22.9-11.1c3.5-10.8-11.6-18.3-19.9-20.1c-16.6-3.7-34.2-4.7-51.1-5.2C725.1,315.3,725.1,319.8,728,319.9
					L728,319.9z"/>
			</g>
		</g>
		<circle class="st11" cx="715.2" cy="321.9" r="11.9"/>
		<circle class="st11" cx="406.5" cy="242.6" r="3.8"/>
		<path class="st10" d="M552.9,153"/>
		
			<ellipse transform="matrix(0.7071 -0.7071 0.7071 0.7071 -30.3144 347.3275)" class="st12" cx="404.1" cy="210.3" rx="11.3" ry="11.3"/>
	</g>
</g>
<g id="Livello_96">
	<rect x="78.2" y="28.5" class="st0" width="1052" height="66.7"/>
	<rect x="104.2" y="544.5" class="st0" width="804" height="34"/>
</g>
</svg>
